# Blender 4.0.2
# www.blender.org
mtllib untitled.mtl
o Cube
v 1.000000 1.000000 -1.000000
v 1.000000 -1.000000 -1.000000
v 1.000000 1.000000 1.000000
v 1.000000 -1.000000 1.000000
v -1.000000 1.000000 -1.000000
v -1.000000 -1.000000 -1.000000
v -1.000000 1.000000 1.000000
v -1.000000 -1.000000 1.000000
vn -0.0000 1.0000 -0.0000
vn -0.0000 -0.0000 1.0000
vn -1.0000 -0.0000 -0.0000
vn -0.0000 -1.0000 -0.0000
vn 1.0000 -0.0000 -0.0000
vn -0.0000 -0.0000 -1.0000
vt 0.250012 0.999746
vt 0.499988 0.666445
vt 0.499988 0.999746
vt 0.249988 0.666650
vt 0.000012 0.333350
vt 0.249988 0.333350
vt 0.750012 0.666650
vt 0.999987 0.333350
vt 0.750012 0.333350
vt 0.499988 0.333378
vt 0.250012 0.000078
vt 0.250012 0.333378
vt 0.499988 0.666650
vt 0.250012 0.333350
vt 0.499988 0.333350
vt 0.500013 0.666650
vt 0.749988 0.333350
vt 0.500013 0.333350
vt 0.250012 0.666445
vt 0.000012 0.666650
vt 0.999987 0.666650
vt 0.499988 0.000078
vt 0.250012 0.666650
vt 0.749988 0.666650
s 0
usemtl Material
f 5/1/1 3/2/1 1/3/1
f 3/4/2 8/5/2 4/6/2
f 7/7/3 6/8/3 8/9/3
f 2/10/4 8/11/4 6/12/4
f 1/13/5 4/14/5 2/15/5
f 5/16/6 2/17/6 6/18/6
f 5/1/1 7/19/1 3/2/1
f 3/4/2 7/20/2 8/5/2
f 7/7/3 5/21/3 6/8/3
f 2/10/4 4/22/4 8/11/4
f 1/13/5 3/23/5 4/14/5
f 5/16/6 1/24/6 2/17/6
